<svg width="170" height="84" viewBox="0 0 170 84" fill="none" xmlns="http://www.w3.org/2000/svg">
<path d="M137.421 59.4703C137.101 59.4703 136.831 59.3619 136.61 59.1451C136.389 58.9283 136.279 58.6633 136.279 58.3502C136.279 58.0371 136.389 57.7721 136.61 57.5553C136.831 57.3385 137.101 57.2301 137.421 57.2301C137.728 57.2301 137.985 57.3385 138.194 57.5553C138.415 57.7721 138.526 58.0371 138.526 58.3502C138.526 58.6633 138.415 58.9283 138.194 59.1451C137.985 59.3619 137.728 59.4703 137.421 59.4703ZM138.231 61.0781V70.9779H136.555V61.0781H138.231Z" fill="#0072BB"/>
<path d="M123.483 65.9922C123.483 64.9805 123.692 64.0953 124.11 63.3365C124.527 62.5657 125.098 61.9696 125.822 61.5481C126.559 61.1265 127.375 60.9158 128.272 60.9158C129.156 60.9158 129.923 61.1024 130.574 61.4758C131.224 61.8491 131.709 62.3189 132.029 62.8849V61.0784H133.723V70.9782H132.029V69.1355C131.697 69.7136 131.2 70.1954 130.537 70.5808C129.886 70.9541 129.125 71.1408 128.253 71.1408C127.357 71.1408 126.547 70.924 125.822 70.4905C125.098 70.0569 124.527 69.4487 124.11 68.6658C123.692 67.883 123.483 66.9918 123.483 65.9922ZM132.029 66.0102C132.029 65.2635 131.875 64.6132 131.568 64.0592C131.261 63.5051 130.844 63.0836 130.316 62.7946C129.8 62.4935 129.229 62.3429 128.603 62.3429C127.977 62.3429 127.406 62.4875 126.89 62.7765C126.375 63.0656 125.963 63.4871 125.657 64.0411C125.35 64.5951 125.196 65.2455 125.196 65.9922C125.196 66.7509 125.35 67.4133 125.657 67.9794C125.963 68.5334 126.375 68.9609 126.89 69.262C127.406 69.5511 127.977 69.6956 128.603 69.6956C129.229 69.6956 129.8 69.5511 130.316 69.262C130.844 68.9609 131.261 68.5334 131.568 67.9794C131.875 67.4133 132.029 66.7569 132.029 66.0102Z" fill="#0072BB"/>
<path d="M120.777 71.0865C120.458 71.0865 120.188 70.9781 119.967 70.7613C119.746 70.5445 119.635 70.2795 119.635 69.9664C119.635 69.6533 119.746 69.3883 119.967 69.1715C120.188 68.9547 120.458 68.8464 120.777 68.8464C121.084 68.8464 121.342 68.9547 121.551 69.1715C121.772 69.3883 121.882 69.6533 121.882 69.9664C121.882 70.2795 121.772 70.5445 121.551 70.7613C121.342 70.9781 121.084 71.0865 120.777 71.0865Z" fill="#0072BB"/>
<path d="M118.475 58.3857L114.294 66.2261V70.9773H112.618V66.2261L108.419 58.3857H110.279L113.447 64.7628L116.615 58.3857H118.475Z" fill="#00AA4F"/>
<path d="M105.042 70.9773L101.985 65.8286H99.9591V70.9773H98.2832V58.3857H102.427C103.397 58.3857 104.213 58.5483 104.876 58.8734C105.552 59.1986 106.055 59.6382 106.386 60.1922C106.718 60.7462 106.884 61.3785 106.884 62.0891C106.884 62.9562 106.626 63.721 106.11 64.3834C105.607 65.0458 104.846 65.4854 103.827 65.7022L107.049 70.9773H105.042ZM99.9591 64.5099H102.427C103.335 64.5099 104.017 64.2931 104.471 63.8595C104.925 63.4139 105.153 62.8237 105.153 62.0891C105.153 61.3424 104.925 60.7643 104.471 60.3548C104.029 59.9453 103.348 59.7406 102.427 59.7406H99.9591V64.5099Z" fill="#00AA4F"/>
<path d="M93.8374 70.9773L90.7803 65.8286H88.7545V70.9773H87.0786V58.3857H91.2223C92.1922 58.3857 93.0087 58.5483 93.6717 58.8734C94.347 59.1986 94.8503 59.6382 95.1818 60.1922C95.5133 60.7462 95.6791 61.3785 95.6791 62.0891C95.6791 62.9562 95.4213 63.721 94.9056 64.3834C94.4022 65.0458 93.641 65.4854 92.622 65.7022L95.8448 70.9773H93.8374ZM88.7545 64.5099H91.2223C92.1309 64.5099 92.8123 64.2931 93.2665 63.8595C93.7208 63.4139 93.9479 62.8237 93.9479 62.0891C93.9479 61.3424 93.7208 60.7643 93.2665 60.3548C92.8245 59.9453 92.1431 59.7406 91.2223 59.7406H88.7545V64.5099Z" fill="#00AA4F"/>
<path d="M78.4204 71.1044C77.2294 71.1044 76.1429 70.8334 75.1607 70.2914C74.1784 69.7374 73.3988 68.9726 72.8218 67.9971C72.257 67.0095 71.9746 65.9015 71.9746 64.6731C71.9746 63.4446 72.257 62.3426 72.8218 61.3671C73.3988 60.3795 74.1784 59.6147 75.1607 59.0728C76.1429 58.5188 77.2294 58.2418 78.4204 58.2418C79.6236 58.2418 80.7163 58.5188 81.6985 59.0728C82.6807 59.6147 83.4542 60.3735 84.019 61.349C84.5837 62.3245 84.8661 63.4326 84.8661 64.6731C84.8661 65.9135 84.5837 67.0216 84.019 67.9971C83.4542 68.9726 82.6807 69.7374 81.6985 70.2914C80.7163 70.8334 79.6236 71.1044 78.4204 71.1044ZM78.4204 69.6772C79.3166 69.6772 80.1208 69.4724 80.8329 69.063C81.5573 68.6535 82.1221 68.0694 82.5272 67.3106C82.9447 66.5519 83.1534 65.6727 83.1534 64.6731C83.1534 63.6614 82.9447 62.7822 82.5272 62.0355C82.1221 61.2768 81.5634 60.6926 80.8513 60.2832C80.1392 59.8737 79.3289 59.6689 78.4204 59.6689C77.5118 59.6689 76.7015 59.8737 75.9894 60.2832C75.2773 60.6926 74.7125 61.2768 74.2951 62.0355C73.8899 62.7822 73.6873 63.6614 73.6873 64.6731C73.6873 65.6727 73.8899 66.5519 74.2951 67.3106C74.7125 68.0694 75.2773 68.6535 75.9894 69.063C76.7138 69.4724 77.5241 69.6772 78.4204 69.6772Z" fill="#00AA4F"/>
<path d="M66.3278 69.6404H70.8214V70.9773H64.6519V58.3857H66.3278V69.6404Z" fill="#00AA4F"/>
<path d="M62.884 58.3857L58.7035 66.2261V70.9773H57.0276V66.2261L52.8286 58.3857H54.6887L57.8563 64.7628L61.0239 58.3857H62.884Z" fill="#0072BB"/>
<path d="M51.0546 58.4764V70.9777H49.3787V61.6559L45.1429 70.9777H43.9643L39.7101 61.6379V70.9777H38.0342V58.4764H39.839L44.5536 68.8098L49.2682 58.4764H51.0546Z" fill="#0072BB"/>
<g clip-path="url(#clip0_963_6262)">
<path d="M65.6895 0.0788256C65.8535 0.0705282 65.9839 0.0539334 66.1143 0.0539334C69.0455 0.0539334 71.9766 0.0539334 74.9036 0.0497847C75.1644 0.0497847 75.32 0.116164 75.463 0.35264C77.0484 2.97462 78.6423 5.58831 80.2403 8.20199C81.7921 10.741 83.3482 13.2759 84.9 15.8149C85.5728 16.9143 86.2457 18.0137 86.9017 19.1255C87.07 19.4118 87.2592 19.5363 87.6125 19.5363C91.6455 19.5238 95.6785 19.4989 99.7115 19.557C100.586 19.5695 101.082 19.3496 101.507 18.5738C102.474 16.8189 103.555 15.1262 104.59 13.4086C105.624 11.6911 106.663 9.97349 107.693 8.25593C108.799 6.4139 109.897 4.57188 111.003 2.72985C111.491 1.9167 111.991 1.11185 112.467 0.294558C112.597 0.0746769 112.782 0.0829743 112.98 0.0829743C114.695 0.0829743 116.411 0.0829743 118.127 0.0829743C119.309 0.0829743 120.491 0.0912717 121.672 0.0788256C122.005 0.0746769 122.11 0.165948 122.11 0.506142C122.097 2.35232 122.11 4.19849 122.11 6.04467C122.114 8.07753 122.122 10.1104 122.131 12.1391C122.139 15.0391 122.152 17.939 122.16 20.839C122.16 21.3492 122.143 21.37 121.613 21.37C119.776 21.37 117.938 21.3534 116.1 21.3575C112.277 21.3575 108.459 21.3783 104.636 21.3783C92.5581 21.3866 80.48 21.3866 68.402 21.3907C64.4699 21.3907 60.5336 21.3949 56.6016 21.3907C56.3324 21.3907 56.2062 21.4903 56.1053 21.7226C55.3147 23.5564 53.4937 24.3695 51.5803 23.7596C49.343 23.0461 48.4682 20.0922 49.9654 18.3041C51.7653 16.1551 55.0371 16.628 56.1179 19.2044C56.2189 19.4491 56.3576 19.5238 56.6184 19.5238C59.4697 19.5197 62.321 19.5238 65.1764 19.5238C65.5269 19.5238 65.7021 19.3468 65.7021 18.9928C65.7021 12.8859 65.7021 6.77484 65.7021 0.667942C65.7021 0.485399 65.7021 0.298707 65.7021 0.087123L65.6895 0.0788256ZM51.1681 20.4158C51.1597 21.3327 51.8789 22.0587 52.7998 22.0587C53.6746 22.0587 54.4316 21.3202 54.4484 20.4407C54.461 19.6151 53.6788 18.831 52.8251 18.8268C51.9251 18.8185 51.1765 19.5363 51.1681 20.4158Z" fill="url(#paint0_linear_963_6262)"/>
<path d="M71.043 39.3463C70.8159 39.3297 70.6435 39.309 70.4753 39.309C66.6652 39.309 62.855 39.309 59.0449 39.3214C58.7337 39.3214 58.5403 39.226 58.351 38.9812C57.0053 37.2305 55.6385 35.5005 54.2928 33.7539C54.1204 33.5298 53.9479 33.4261 53.662 33.4303C52.3919 33.4427 51.1219 33.4427 49.8518 33.4303C49.5995 33.4303 49.507 33.5423 49.4229 33.7414C48.7374 35.3428 47.3244 36.1601 45.5875 35.961C44.1408 35.795 42.875 34.6085 42.5932 33.1565C42.24 31.3476 43.304 29.6467 45.1291 29.1032C46.8239 28.597 48.6953 29.4807 49.3766 31.136C49.5154 31.4679 49.6878 31.5675 50.0369 31.5675C51.5845 31.5509 53.1363 31.5675 54.6839 31.5592C54.9194 31.5592 55.075 31.6339 55.2138 31.8164C56.5553 33.5547 57.9095 35.2847 59.2426 37.0272C59.4613 37.3135 59.6926 37.4379 60.0711 37.4379C73.3182 37.4296 86.5653 37.4379 99.8125 37.4421C107.067 37.4421 114.317 37.4545 121.571 37.4628C121.672 37.4628 121.773 37.467 121.874 37.4628C122.101 37.4587 122.194 37.5707 122.19 37.7906C122.181 38.0644 122.181 38.3382 122.181 38.6162C122.198 42.0513 122.219 45.4906 122.236 48.9257C122.236 49.5107 122.227 49.5231 121.647 49.5231C118.371 49.5231 115.095 49.519 111.819 49.5314C111.487 49.5314 111.457 49.3696 111.453 49.1248C111.44 47.4778 111.419 45.8308 111.411 44.1837C111.403 42.7649 111.411 41.3502 111.411 39.9313C111.411 39.28 111.398 39.2758 110.742 39.28C107.454 39.2882 104.169 39.3007 100.881 39.309C100.536 39.309 100.191 39.309 99.8461 39.3007C99.6232 39.2924 99.4718 39.3754 99.3541 39.5704C98.4709 41.0307 97.5794 42.4869 96.7004 43.9514C96.5827 44.1464 96.4691 44.2708 96.2168 44.2708C94.6566 44.2625 93.0964 44.2791 91.5361 44.2584C91.4016 44.2584 91.2207 44.109 91.1408 43.9804C90.2156 42.5159 89.3157 41.0432 88.3863 39.5828C88.3064 39.4542 88.0961 39.3297 87.9447 39.3256C84.2565 39.3131 80.5684 39.3173 76.8802 39.3131C76.6405 39.3131 76.5564 39.3961 76.5564 39.6409C76.5564 42.4205 76.5522 45.2002 76.5438 47.9798C76.5438 48.3864 76.5311 48.7929 76.5438 49.1995C76.5522 49.4567 76.4512 49.5397 76.1905 49.5397C74.2854 49.5314 72.3804 49.5397 70.4753 49.5397C69.0034 49.5397 67.5357 49.5314 66.0638 49.5397C65.7862 49.5397 65.7021 49.4567 65.7063 49.1829C65.719 48.0296 65.7063 46.8762 65.7147 45.7229C65.7147 45.4076 65.6138 45.2914 65.29 45.3039C64.7769 45.3246 64.2639 45.3163 63.7508 45.3039C63.5195 45.2997 63.3891 45.3744 63.3008 45.5984C62.5817 47.4488 60.5042 48.3656 58.6412 47.6064C57.3039 47.0629 56.5385 46.0299 56.4291 44.6027C56.3282 43.2835 56.8833 42.2172 57.9852 41.4746C59.2762 40.6034 60.9121 40.6532 62.1359 41.5825C62.6658 41.9808 63.0653 42.4993 63.2924 43.1217C63.3765 43.354 63.4901 43.4577 63.7466 43.4577C65.0377 43.4494 66.3329 43.466 67.624 43.4453C67.7796 43.4453 67.9815 43.3291 68.0824 43.2046C69.0202 42.0181 69.9412 40.8191 70.8622 39.6243C70.9127 39.5579 70.9547 39.4832 71.043 39.3463ZM59.9743 45.9884C60.8743 45.9884 61.6229 45.2665 61.6271 44.3912C61.6355 43.5158 60.8659 42.7524 59.9743 42.7483C59.0702 42.7483 58.3216 43.4909 58.3258 44.3912C58.3258 45.279 59.0617 45.9884 59.9743 45.9884ZM47.7239 32.4968C47.7239 31.6256 46.9963 30.8747 46.1342 30.8664C45.2174 30.8581 44.4563 31.5841 44.4436 32.4761C44.431 33.3432 45.2259 34.1273 46.109 34.119C46.9669 34.1107 47.7197 33.3556 47.7239 32.4968Z" fill="url(#paint1_linear_963_6262)"/>
<path d="M85.6231 27.3773C73.667 27.3773 61.7109 27.3773 49.7549 27.3856C49.3974 27.3856 49.1703 27.286 48.9474 26.9998C47.2316 24.7719 45.499 22.5524 43.7621 20.3411C43.6696 20.2249 43.4762 20.1254 43.329 20.1212C42.0463 20.1046 40.7679 20.1212 39.4852 20.1046C39.2203 20.1046 39.0941 20.1876 38.9974 20.4324C38.4591 21.7807 37.1259 22.6934 35.6709 22.6685C34.1779 22.6436 33.0551 21.9467 32.4285 20.6149C31.8145 19.3205 31.9827 18.0469 32.8995 16.935C33.7868 15.8605 34.9686 15.4498 36.3606 15.7112C37.6306 15.9518 38.4927 16.7068 38.9974 17.8602C39.1109 18.1174 39.2497 18.2004 39.5188 18.2004C41.1001 18.1921 42.6813 18.2004 44.2668 18.1921C44.4939 18.1921 44.6369 18.2668 44.7672 18.4369C46.4999 20.6813 48.2451 22.9175 49.9778 25.1661C50.146 25.3859 50.3268 25.4772 50.617 25.4772C67.5859 25.4772 84.5549 25.4772 101.528 25.4814C108.236 25.4814 114.943 25.4855 121.651 25.4897C122.139 25.4897 122.168 25.5145 122.168 25.9833C122.168 26.336 122.164 26.6845 122.168 27.0371C122.168 27.228 122.093 27.3234 121.895 27.3234C121.718 27.3234 121.538 27.3317 121.361 27.3317C117.437 27.3317 113.518 27.3317 109.594 27.3317C101.604 27.3317 93.6176 27.3317 85.6273 27.3317C85.6273 27.3441 85.6273 27.3566 85.6273 27.369L85.6231 27.3773ZM34.0434 19.1463C34.0434 20.0217 34.7793 20.7643 35.6709 20.7809C36.5077 20.7975 37.3278 19.9843 37.3194 19.1504C37.311 18.3207 36.5246 17.5407 35.6919 17.5324C34.8172 17.5241 34.0434 18.2834 34.0434 19.1463Z" fill="url(#paint2_linear_963_6262)"/>
<path d="M94.9424 33.3639C86.153 33.3639 77.3594 33.3639 68.5701 33.3639C68.5238 33.3639 68.4817 33.368 68.4355 33.3639C68.0486 33.31 67.8383 33.4386 67.6617 33.8286C67.0561 35.1686 65.9417 35.8988 64.4824 35.9153C62.4301 35.9361 60.8867 34.4011 60.8741 32.4138C60.8573 29.8541 63.5319 28.1324 65.9501 29.2318C66.7785 29.6093 67.3925 30.2275 67.7079 31.078C67.8299 31.4016 67.9981 31.4845 68.3177 31.4845C70.7485 31.4762 73.175 31.4804 75.6058 31.4804C85.5895 31.4804 95.5732 31.4887 105.557 31.4928C110.927 31.4928 116.298 31.4928 121.668 31.4928C122.164 31.4928 122.168 31.4928 122.173 31.9865C122.173 32.3267 122.173 32.6669 122.173 33.0071C122.173 33.2228 122.072 33.3307 121.849 33.3307C121.538 33.3307 121.226 33.3349 120.911 33.3349C113.535 33.3349 106.158 33.3349 98.7819 33.339C97.4993 33.339 96.2208 33.339 94.9382 33.339C94.9382 33.3473 94.9382 33.3515 94.9382 33.3597L94.9424 33.3639ZM64.4403 34.0194C65.3361 34.0152 66.0888 33.2768 66.0888 32.4055C66.0888 31.5385 65.2814 30.7544 64.4067 30.7668C63.5488 30.7793 62.7581 31.5758 62.775 32.418C62.7918 33.2934 63.5488 34.0235 64.4403 34.0194Z" fill="url(#paint3_linear_963_6262)"/>
</g>
<path d="M40.5527 78.8476H41.5793L42.5137 80.6516L43.4413 78.8476H44.4542L42.9878 81.6971V83.8736H42.026V81.6971L40.5527 78.8476Z" fill="#00AA4F"/>
<path d="M37.4834 78.8476H40.256V79.7906H39.3421V83.8736H38.3735V79.7906H37.4834V78.8476Z" fill="#00AA4F"/>
<path d="M34.3462 78.8476H37.0847V79.7838H35.2943V80.6926H37.0847V81.6117H35.2943V82.934H37.0847V83.8736H34.3462V78.8476Z" fill="#00AA4F"/>
<path d="M31.0005 78.8476H33.4901V79.7804H31.9452V80.6926H33.4901V81.6117H31.9452V83.8736H31.0005V78.8476Z" fill="#00AA4F"/>
<path d="M27.3443 78.8476H28.3129L30.2432 83.8736H29.2507L28.8585 82.8383H26.8123L26.4031 83.8736H25.4106L27.3443 78.8476ZM27.8354 80.1801L27.167 81.9056H28.5005L27.8354 80.1801Z" fill="#00AA4F"/>
<path d="M24.8106 79.5309L24.1046 80.1562C23.8568 79.81 23.6044 79.6368 23.3475 79.6368C23.2225 79.6368 23.1202 79.671 23.0406 79.7394C22.961 79.8054 22.9212 79.8806 22.9212 79.9649C22.9212 80.0491 22.9496 80.1289 23.0065 80.204C23.0838 80.3042 23.3168 80.5195 23.7056 80.8498C24.0694 81.155 24.2899 81.3475 24.3672 81.4272C24.5605 81.6231 24.6969 81.811 24.7765 81.991C24.8583 82.1686 24.8992 82.3634 24.8992 82.5752C24.8992 82.9875 24.7571 83.328 24.4729 83.5968C24.1887 83.8656 23.8182 84 23.3612 84C23.0042 84 22.6927 83.9123 22.4267 83.7369C22.163 83.5615 21.9368 83.2859 21.748 82.9101L22.5495 82.4249C22.7905 82.8691 23.0679 83.0912 23.3816 83.0912C23.5453 83.0912 23.6829 83.0433 23.7943 82.9476C23.9057 82.852 23.9614 82.7415 23.9614 82.6162C23.9614 82.5023 23.9193 82.3884 23.8352 82.2746C23.7511 82.1607 23.5658 81.9864 23.2793 81.7518C22.7336 81.3053 22.3812 80.9614 22.2221 80.7199C22.0629 80.4762 21.9834 80.2336 21.9834 79.9922C21.9834 79.6437 22.1152 79.3453 22.379 79.097C22.645 78.8464 22.9724 78.7212 23.3612 78.7212C23.6113 78.7212 23.8488 78.7793 24.0739 78.8954C24.3013 79.0116 24.5468 79.2234 24.8106 79.5309Z" fill="#00AA4F"/>
<path d="M16.5913 78.8476H19.3299V79.7838H17.5394V80.6926H19.3299V81.6117H17.5394V82.934H19.3299V83.8736H16.5913V78.8476Z" fill="#0072BB"/>
<path d="M12.6016 78.8476H13.6144C14.1692 78.8476 14.5637 78.8977 14.7979 78.9979C15.0343 79.0959 15.2242 79.2599 15.3674 79.4899C15.5106 79.72 15.5822 79.9922 15.5822 80.3065C15.5822 80.6368 15.5027 80.9136 15.3435 81.1368C15.1866 81.3577 14.949 81.5252 14.6307 81.639L15.8176 83.8736H14.774L13.6451 81.745H13.5565V83.8736H12.6016V78.8476ZM13.5565 80.8122H13.8566C14.1612 80.8122 14.3704 80.7723 14.4841 80.6926C14.6001 80.6129 14.658 80.4808 14.658 80.2963C14.658 80.1869 14.6296 80.0924 14.5728 80.0127C14.5159 79.9307 14.4398 79.8726 14.3443 79.8384C14.2488 79.802 14.0737 79.7838 13.8191 79.7838H13.5565V80.8122Z" fill="#0072BB"/>
<path d="M9.04106 78.7212C9.75042 78.7212 10.3597 78.9786 10.869 79.4933C11.3806 80.0081 11.6364 80.6357 11.6364 81.376C11.6364 82.1094 11.384 82.7301 10.8793 83.2381C10.3768 83.746 9.76634 84 9.04788 84C8.29532 84 7.67009 83.7392 7.17217 83.2176C6.67425 82.696 6.42529 82.0764 6.42529 81.3589C6.42529 80.8783 6.54125 80.4364 6.77315 80.0332C7.00506 79.63 7.32336 79.3111 7.72806 79.0765C8.13504 78.8396 8.5727 78.7212 9.04106 78.7212ZM9.03083 79.6573C8.56702 79.6573 8.1771 79.8191 7.86107 80.1425C7.54504 80.466 7.38702 80.8771 7.38702 81.376C7.38702 81.9317 7.58596 82.3714 7.98384 82.6948C8.29305 82.9476 8.64773 83.0741 9.04788 83.0741C9.50033 83.0741 9.8857 82.9101 10.204 82.5821C10.5223 82.2541 10.6815 81.8497 10.6815 81.3691C10.6815 80.8908 10.5212 80.4865 10.2006 80.1562C9.88002 79.8236 9.4901 79.6573 9.03083 79.6573Z" fill="#0072BB"/>
<path d="M0.866239 78.8476H1.80069L2.96022 82.3531L4.1368 78.8476H5.05761L5.90339 83.8736H4.98258L4.44374 80.6994L3.37629 83.8736H2.53392L1.48011 80.6994L0.931036 83.8736H0L0.866239 78.8476Z" fill="#0072BB"/>
<path d="M169.911 79.5309L169.205 80.1562C168.957 79.81 168.705 79.6368 168.448 79.6368C168.323 79.6368 168.221 79.671 168.141 79.7394C168.062 79.8054 168.022 79.8806 168.022 79.9649C168.022 80.0491 168.05 80.1289 168.107 80.204C168.184 80.3042 168.417 80.5195 168.806 80.8498C169.17 81.155 169.391 81.3475 169.468 81.4272C169.661 81.6231 169.797 81.811 169.877 81.991C169.959 82.1686 170 82.3634 170 82.5752C170 82.9875 169.858 83.328 169.574 83.5968C169.289 83.8656 168.919 84 168.462 84C168.105 84 167.793 83.9123 167.527 83.7369C167.264 83.5615 167.037 83.2859 166.849 82.9101L167.65 82.4249C167.891 82.8691 168.168 83.0912 168.482 83.0912C168.646 83.0912 168.783 83.0433 168.895 82.9476C169.006 82.852 169.062 82.7415 169.062 82.6162C169.062 82.5023 169.02 82.3884 168.936 82.2746C168.852 82.1607 168.666 81.9864 168.38 81.7518C167.834 81.3053 167.482 80.9614 167.323 80.7199C167.164 80.4762 167.084 80.2336 167.084 79.9922C167.084 79.6437 167.216 79.3453 167.48 79.097C167.746 78.8464 168.073 78.7212 168.462 78.7212C168.712 78.7212 168.949 78.7793 169.175 78.8954C169.402 79.0116 169.647 79.2234 169.911 79.5309Z" fill="#00AA4F"/>
<path d="M166.047 79.6676L165.375 80.3339C164.95 79.8829 164.455 79.6573 163.889 79.6573C163.395 79.6573 162.981 79.8214 162.647 80.1494C162.315 80.4774 162.149 80.876 162.149 81.3452C162.149 81.8304 162.322 82.2415 162.668 82.5786C163.013 82.9158 163.44 83.0843 163.947 83.0843C164.276 83.0843 164.554 83.0148 164.779 82.8759C165.006 82.737 165.189 82.5194 165.328 82.2233H163.875V81.3247H166.399L166.405 81.5365C166.405 81.9762 166.292 82.393 166.064 82.7871C165.837 83.1811 165.543 83.4818 165.181 83.6891C164.82 83.8964 164.396 84 163.909 84C163.388 84 162.923 83.8872 162.514 83.6617C162.107 83.434 161.784 83.1105 161.546 82.6914C161.309 82.2723 161.191 81.8201 161.191 81.335C161.191 80.6698 161.41 80.0913 161.849 79.5993C162.37 79.0139 163.047 78.7212 163.882 78.7212C164.318 78.7212 164.726 78.802 165.106 78.9638C165.427 79.1004 165.74 79.335 166.047 79.6676Z" fill="#00AA4F"/>
<path d="M156.25 78.8476H157.163L159.315 82.155V78.8476H160.27V83.8736H159.353L157.204 80.5764V83.8736H156.25V78.8476Z" fill="#00AA4F"/>
<path d="M154.22 78.8476H155.168V83.8736H154.22V78.8476Z" fill="#00AA4F"/>
<path d="M149.122 78.8476H150.036L152.188 82.155V78.8476H153.142V83.8736H152.225L150.076 80.5764V83.8736H149.122V78.8476Z" fill="#00AA4F"/>
<path d="M145.131 78.8476H146.144C146.699 78.8476 147.093 78.8977 147.328 78.9979C147.564 79.0959 147.754 79.2599 147.897 79.4899C148.04 79.72 148.112 79.9922 148.112 80.3065C148.112 80.6368 148.032 80.9136 147.873 81.1368C147.716 81.3577 147.479 81.5252 147.161 81.639L148.347 83.8736H147.304L146.175 81.745H146.086V83.8736H145.131V78.8476ZM146.086 80.8122H146.386C146.691 80.8122 146.9 80.7723 147.014 80.6926C147.13 80.6129 147.188 80.4808 147.188 80.2963C147.188 80.1869 147.159 80.0924 147.103 80.0127C147.046 79.9307 146.97 79.8726 146.874 79.8384C146.779 79.802 146.603 79.7838 146.349 79.7838H146.086V80.8122Z" fill="#00AA4F"/>
<path d="M141.424 78.8476H142.393L144.323 83.8736H143.331L142.939 82.8383H140.892L140.483 83.8736H139.491L141.424 78.8476ZM141.916 80.1801L141.247 81.9056H142.581L141.916 80.1801Z" fill="#00AA4F"/>
<path d="M136.265 78.8476H139.003V79.7838H137.213V80.6926H139.003V81.6117H137.213V82.934H139.003V83.8736H136.265V78.8476Z" fill="#00AA4F"/>
<path d="M130.671 78.8476H133.41V79.7838H131.619V80.6926H133.41V81.6117H131.619V82.934H133.41V83.8736H130.671V78.8476Z" fill="#0072BB"/>
<path d="M126.681 78.8476H127.694C128.249 78.8476 128.643 78.8977 128.877 78.9979C129.114 79.0959 129.304 79.2599 129.447 79.4899C129.59 79.72 129.662 79.9922 129.662 80.3065C129.662 80.6368 129.582 80.9136 129.423 81.1368C129.266 81.3577 129.029 81.5252 128.71 81.639L129.897 83.8736H128.854L127.725 81.745H127.636V83.8736H126.681V78.8476ZM127.636 80.8122H127.936C128.241 80.8122 128.45 80.7723 128.564 80.6926C128.68 80.6129 128.738 80.4808 128.738 80.2963C128.738 80.1869 128.709 80.0924 128.652 80.0127C128.596 79.9307 128.519 79.8726 128.424 79.8384C128.328 79.802 128.153 79.7838 127.899 79.7838H127.636V80.8122Z" fill="#0072BB"/>
<path d="M123.121 78.7212C123.83 78.7212 124.439 78.9786 124.949 79.4933C125.46 80.0081 125.716 80.6357 125.716 81.376C125.716 82.1094 125.464 82.7301 124.959 83.2381C124.456 83.746 123.846 84 123.127 84C122.375 84 121.75 83.7392 121.252 83.2176C120.754 82.696 120.505 82.0764 120.505 81.3589C120.505 80.8783 120.621 80.4364 120.853 80.0332C121.085 79.63 121.403 79.3111 121.808 79.0765C122.215 78.8396 122.652 78.7212 123.121 78.7212ZM123.11 79.6573C122.647 79.6573 122.257 79.8191 121.941 80.1425C121.625 80.466 121.467 80.8771 121.467 81.376C121.467 81.9317 121.666 82.3714 122.063 82.6948C122.373 82.9476 122.727 83.0741 123.127 83.0741C123.58 83.0741 123.965 82.9101 124.284 82.5821C124.602 82.2541 124.761 81.8497 124.761 81.3691C124.761 80.8908 124.601 80.4865 124.28 80.1562C123.96 79.8236 123.57 79.6573 123.11 79.6573Z" fill="#0072BB"/>
<path d="M114.946 78.8476H115.881L117.04 82.3531L118.217 78.8476H119.138L119.983 83.8736H119.063L118.524 80.6994L117.456 83.8736H116.614L115.56 80.6994L115.011 83.8736H114.08L114.946 78.8476Z" fill="#0072BB"/>
<path d="M105.048 79.5309L104.342 80.1562C104.094 79.81 103.842 79.6368 103.585 79.6368C103.46 79.6368 103.357 79.671 103.278 79.7394C103.198 79.8054 103.159 79.8806 103.159 79.9649C103.159 80.0491 103.187 80.1289 103.244 80.204C103.321 80.3042 103.554 80.5195 103.943 80.8498C104.307 81.155 104.527 81.3475 104.605 81.4272C104.798 81.6231 104.934 81.811 105.014 81.991C105.096 82.1686 105.137 82.3634 105.137 82.5752C105.137 82.9875 104.994 83.328 104.71 83.5968C104.426 83.8656 104.055 84 103.598 84C103.242 84 102.93 83.9123 102.664 83.7369C102.4 83.5615 102.174 83.2859 101.985 82.9101L102.787 82.4249C103.028 82.8691 103.305 83.0912 103.619 83.0912C103.783 83.0912 103.92 83.0433 104.032 82.9476C104.143 82.852 104.199 82.7415 104.199 82.6162C104.199 82.5023 104.157 82.3884 104.073 82.2746C103.988 82.1607 103.803 81.9864 103.517 81.7518C102.971 81.3053 102.619 80.9614 102.459 80.7199C102.3 80.4762 102.221 80.2336 102.221 79.9922C102.221 79.6437 102.353 79.3453 102.616 79.097C102.882 78.8464 103.21 78.7212 103.598 78.7212C103.849 78.7212 104.086 78.7793 104.311 78.8954C104.539 79.0116 104.784 79.2234 105.048 79.5309Z" fill="#00AA4F"/>
<path d="M101.184 79.6676L100.512 80.3339C100.087 79.8829 99.5914 79.6573 99.0253 79.6573C98.5319 79.6573 98.1181 79.8214 97.7839 80.1494C97.4519 80.4774 97.286 80.876 97.286 81.3452C97.286 81.8304 97.4587 82.2415 97.8043 82.5786C98.1499 82.9158 98.5762 83.0843 99.0832 83.0843C99.4129 83.0843 99.6903 83.0148 99.9154 82.8759C100.143 82.737 100.326 82.5194 100.464 82.2233H99.0116V81.3247H101.535L101.542 81.5365C101.542 81.9762 101.428 82.393 101.201 82.7871C100.974 83.1811 100.679 83.4818 100.318 83.6891C99.9563 83.8964 99.5323 84 99.0457 84C98.5251 84 98.0601 83.8872 97.6509 83.6617C97.2439 83.434 96.921 83.1105 96.6823 82.6914C96.4459 82.2723 96.3276 81.8201 96.3276 81.335C96.3276 80.6698 96.547 80.0913 96.9858 79.5993C97.5065 79.0139 98.184 78.7212 99.0184 78.7212C99.455 78.7212 99.8631 78.802 100.243 78.9638C100.563 79.1004 100.877 79.335 101.184 79.6676Z" fill="#00AA4F"/>
<path d="M91.3857 78.8476H92.2997L94.4517 82.155V78.8476H95.4066V83.8736H94.4892L92.3407 80.5764V83.8736H91.3857V78.8476Z" fill="#00AA4F"/>
<path d="M89.3569 78.8476H90.305V83.8736H89.3569V78.8476Z" fill="#00AA4F"/>
<path d="M84.1523 78.8476H85.1345L86.3964 82.4181L87.6753 78.8476H88.6575L86.85 83.8736H85.9292L84.1523 78.8476Z" fill="#00AA4F"/>
<path d="M80.8922 78.8476H81.8607L83.791 83.8736H82.7986L82.4064 82.8383H80.3602L79.9509 83.8736H78.9585L80.8922 78.8476ZM81.3833 80.1801L80.7148 81.9056H82.0483L81.3833 80.1801Z" fill="#00AA4F"/>
<path d="M78.3584 79.5309L77.6525 80.1562C77.4047 79.81 77.1523 79.6368 76.8954 79.6368C76.7703 79.6368 76.668 79.671 76.5884 79.7394C76.5089 79.8054 76.4691 79.8806 76.4691 79.9649C76.4691 80.0491 76.4975 80.1289 76.5543 80.204C76.6316 80.3042 76.8647 80.5195 77.2535 80.8498C77.6172 81.155 77.8378 81.3475 77.9151 81.4272C78.1083 81.6231 78.2447 81.811 78.3243 81.991C78.4062 82.1686 78.4471 82.3634 78.4471 82.5752C78.4471 82.9875 78.305 83.328 78.0208 83.5968C77.7366 83.8656 77.366 84 76.909 84C76.5521 84 76.2406 83.9123 75.9746 83.7369C75.7108 83.5615 75.4846 83.2859 75.2959 82.9101L76.0973 82.4249C76.3383 82.8691 76.6157 83.0912 76.9295 83.0912C77.0932 83.0912 77.2307 83.0433 77.3421 82.9476C77.4535 82.852 77.5092 82.7415 77.5092 82.6162C77.5092 82.5023 77.4672 82.3884 77.3831 82.2746C77.2989 82.1607 77.1136 81.9864 76.8272 81.7518C76.2815 81.3053 75.9291 80.9614 75.7699 80.7199C75.6108 80.4762 75.5312 80.2336 75.5312 79.9922C75.5312 79.6437 75.6631 79.3453 75.9268 79.097C76.1928 78.8464 76.5202 78.7212 76.909 78.7212C77.1591 78.7212 77.3967 78.7793 77.6218 78.8954C77.8491 79.0116 78.0947 79.2234 78.3584 79.5309Z" fill="#00AA4F"/>
<path d="M70.1392 78.8476H72.8777V79.7838H71.0872V80.6926H72.8777V81.6117H71.0872V82.934H72.8777V83.8736H70.1392V78.8476Z" fill="#0072BB"/>
<path d="M66.1489 78.8476H67.1618C67.7166 78.8476 68.111 78.8977 68.3452 78.9979C68.5817 79.0959 68.7715 79.2599 68.9148 79.4899C69.058 79.72 69.1296 79.9922 69.1296 80.3065C69.1296 80.6368 69.05 80.9136 68.8909 81.1368C68.734 81.3577 68.4964 81.5252 68.1781 81.639L69.3649 83.8736H68.3213L67.1925 81.745H67.1038V83.8736H66.1489V78.8476ZM67.1038 80.8122H67.4039C67.7086 80.8122 67.9178 80.7723 68.0315 80.6926C68.1474 80.6129 68.2054 80.4808 68.2054 80.2963C68.2054 80.1869 68.177 80.0924 68.1201 80.0127C68.0633 79.9307 67.9871 79.8726 67.8916 79.8384C67.7961 79.802 67.6211 79.7838 67.3664 79.7838H67.1038V80.8122Z" fill="#0072BB"/>
<path d="M62.5884 78.7212C63.2978 78.7212 63.9071 78.9786 64.4164 79.4933C64.928 80.0081 65.1837 80.6357 65.1837 81.376C65.1837 82.1094 64.9314 82.7301 64.4266 83.2381C63.9242 83.746 63.3137 84 62.5952 84C61.8427 84 61.2174 83.7392 60.7195 83.2176C60.2216 82.696 59.9727 82.0764 59.9727 81.3589C59.9727 80.8783 60.0886 80.4364 60.3205 80.0332C60.5524 79.63 60.8707 79.3111 61.2754 79.0765C61.6824 78.8396 62.1201 78.7212 62.5884 78.7212ZM62.5782 79.6573C62.1144 79.6573 61.7245 79.8191 61.4084 80.1425C61.0924 80.466 60.9344 80.8771 60.9344 81.376C60.9344 81.9317 61.1333 82.3714 61.5312 82.6948C61.8404 82.9476 62.1951 83.0741 62.5952 83.0741C63.0477 83.0741 63.4331 82.9101 63.7514 82.5821C64.0697 82.2541 64.2288 81.8497 64.2288 81.3691C64.2288 80.8908 64.0685 80.4865 63.748 80.1562C63.4274 79.8236 63.0375 79.6573 62.5782 79.6573Z" fill="#0072BB"/>
<path d="M54.4141 78.8476H55.3485L56.5081 82.3531L57.6847 78.8476H58.6055L59.4512 83.8736H58.5304L57.9916 80.6994L56.9241 83.8736H56.0818L55.028 80.6994L54.4789 83.8736H53.5479L54.4141 78.8476Z" fill="#0072BB"/>
<path d="M49.26 82.615C48.9408 82.615 48.6707 82.5066 48.4497 82.2898C48.2287 82.073 48.1182 81.8081 48.1182 81.4949C48.1182 81.1818 48.2287 80.9168 48.4497 80.7C48.6707 80.4833 48.9408 80.3749 49.26 80.3749C49.5669 80.3749 49.8247 80.4833 50.0335 80.7C50.2545 80.9168 50.365 81.1818 50.365 81.4949C50.365 81.8081 50.2545 82.073 50.0335 82.2898C49.8247 82.5066 49.5669 82.615 49.26 82.615Z" fill="#0072BB"/>
<path d="M109.792 82.615C109.473 82.615 109.203 82.5066 108.982 82.2898C108.761 82.073 108.65 81.8081 108.65 81.4949C108.65 81.1818 108.761 80.9168 108.982 80.7C109.203 80.4833 109.473 80.3749 109.792 80.3749C110.099 80.3749 110.357 80.4833 110.566 80.7C110.787 80.9168 110.897 81.1818 110.897 81.4949C110.897 81.8081 110.787 82.073 110.566 82.2898C110.357 82.5066 110.099 82.615 109.792 82.615Z" fill="#0072BB"/>
<defs>
<linearGradient id="paint0_linear_963_6262" x1="49.221" y1="12.0022" x2="122.164" y2="12.0022" gradientUnits="userSpaceOnUse">
<stop stop-color="#00AA4F"/>
<stop offset="1" stop-color="#0072BB"/>
</linearGradient>
<linearGradient id="paint1_linear_963_6262" x1="42.5218" y1="39.2468" x2="122.227" y2="39.2468" gradientUnits="userSpaceOnUse">
<stop stop-color="#00AA4F"/>
<stop offset="1" stop-color="#0072BB"/>
</linearGradient>
<linearGradient id="paint2_linear_963_6262" x1="32.0626" y1="21.511" x2="122.164" y2="21.511" gradientUnits="userSpaceOnUse">
<stop stop-color="#00AA4F"/>
<stop offset="1" stop-color="#0072BB"/>
</linearGradient>
<linearGradient id="paint3_linear_963_6262" x1="60.8699" y1="32.4014" x2="122.173" y2="32.4014" gradientUnits="userSpaceOnUse">
<stop stop-color="#00AA4F"/>
<stop offset="1" stop-color="#0072BB"/>
</linearGradient>
<clipPath id="clip0_963_6262">
<rect width="90.2656" height="49.5853" fill="white" transform="translate(32.0122)"/>
</clipPath>
</defs>
</svg>
